<svg xmlns="http://www.w3.org/2000/svg" viewBox="0 0 512 512" width="512" height="512">
  <defs>
    <linearGradient id="gold-grad" x1="0%" y1="0%" x2="100%" y2="100%">
      <stop offset="0%" stop-color="#FFC107" />
      <stop offset="100%" stop-color="#FF8F00" />
    </linearGradient>
  </defs>
  <!-- Background -->
  <rect width="512" height="512" rx="112" fill="#0d1117" />
  <!-- Inner Circle with Gradient -->
  <circle cx="256" cy="256" r="180" fill="url(#gold-grad)" />
  <!-- Bird Icon in Dark Charcoal -->
  <g transform="translate(142, 142) scale(9.5)" stroke="#0d1117" stroke-width="2" stroke-linecap="round" stroke-linejoin="round" fill="none">
    <path d="M16 8c1.5-1.5 3-1.5 4.5 0 1.5 1.5 1.5 3 0 4.5L12 21l-3-3L4 13.5c-1.5-1.5-1.5-3 0-4.5 1.5-1.5 3-1.5 4.5 0" />
    <path d="M12 11.5V16" />
    <path d="M9 16c-1.5-.5-3-.5-4 0" />
    <path d="M15 16c1.5-.5 3-.5 4 0" />
  </g>
</svg>
